# xmcd
#
# Track frame offsets:
#	150
#	14945
#	29630
#	46215
#	62157
#	82205
#	99277
#	115650
#	133060
#	150347
#	166940
#	181047
#	196460
#	212590
#	228390
#
# Disc length: 3357 seconds
#
# Revision: 0
# Processed by: cddbd v1.5.2PL0 Copyright (c) Steve Scherf et al.
# Submitted via: dBpowerAMP V4.0
#
DISCID=c70d1b0f
DTITLE=LIMÃO COM MEL - PAIXÃO X PAIXÃO
DYEAR=2006
DGENRE=Alternative
TTITLE0=PAIXÃO VEZES PAIXÃO
TTITLE1=DEPENDENTES
TTITLE2=FOI A PRIMEIRA VEZ
TTITLE3=ME APAIXONEI
TTITLE4=CHORO
TTITLE5=FIM DE SOLIDÃO
TTITLE6=O QUE É QUE EU FAÇO
TTITLE7=JAN E
TTITLE8=A LUA E AS ESTRELAS
TTITLE9=ISSO É AMOR DEMAIS
TTITLE10=DOIS CORAÇÕES
TTITLE11=PERDOA
TTITLE12=É SAUDADE DEMAIS
TTITLE13=CORAÇÃO ABERTO
TTITLE14=O FAROL
EXTD=
EXTT0=
EXTT1=
EXTT2=
EXTT3=
EXTT4=
EXTT5=
EXTT6=
EXTT7=
EXTT8=
EXTT9=
EXTT10=
EXTT11=
EXTT12=
EXTT13=
EXTT14=
PLAYORDER=
